<?xml version="1.0" standalone="no"?>
<!DOCTYPE svg PUBLIC "-//W3C//DTD SVG 20010904//EN"
 "http://www.w3.org/TR/2001/REC-SVG-20010904/DTD/svg10.dtd">
<svg version="1.0" xmlns="http://www.w3.org/2000/svg"
 width="567.000000pt" height="567.000000pt" viewBox="0 0 567.000000 567.000000"
 preserveAspectRatio="xMidYMid meet">
<metadata>
Created by potrace 1.14, written by Peter Selinger 2001-2017
</metadata>
<g transform="translate(0.000000,567.000000) scale(0.100000,-0.100000)"
fill="#000000" stroke="none">
<path d="M2830 5206 c0 -8 -13 -23 -29 -32 -21 -13 -28 -22 -22 -33 7 -16 -32
-65 -43 -53 -6 5 -10 -17 -9 -45 1 -7 -3 -10 -8 -7 -5 3 -9 0 -9 -6 0 -7 -7
-9 -16 -6 -10 4 -13 2 -7 -6 15 -26 8 -46 -24 -68 -27 -18 -31 -25 -22 -41 10
-19 9 -20 -13 -23 -7 -1 -12 -9 -12 -19 1 -9 -2 -17 -8 -17 -5 0 -7 -4 -4 -9
3 -5 -1 -11 -9 -15 -8 -3 -15 -12 -15 -21 0 -8 -5 -15 -11 -15 -5 0 -7 5 -3
12 4 7 3 8 -4 4 -7 -4 -10 -17 -8 -29 2 -13 -4 -27 -15 -34 -9 -7 -16 -20 -15
-29 3 -18 -34 -63 -46 -57 -5 2 -8 -10 -8 -27 0 -17 -3 -29 -7 -27 -5 3 -14
-1 -21 -9 -9 -10 -9 -14 -1 -14 8 0 9 -4 0 -13 -6 -8 -9 -17 -6 -20 3 -4 2 -5
-1 -3 -10 7 -33 -18 -26 -28 3 -5 -2 -7 -11 -3 -11 4 -15 1 -12 -14 2 -10 -2
-19 -8 -19 -8 0 -8 -3 1 -9 11 -6 9 -9 -6 -13 -13 -4 -20 -13 -18 -24 3 -21
-23 -54 -42 -54 -7 0 -11 -4 -7 -9 3 -5 1 -12 -4 -16 -6 -3 -8 -12 -4 -20 5
-14 -8 -20 -31 -16 -5 1 -4 -5 3 -13 10 -12 9 -18 -7 -34 -10 -10 -18 -26 -16
-36 1 -9 -6 -22 -17 -29 -10 -6 -19 -17 -19 -24 0 -7 -6 -12 -12 -10 -8 1 -12
-8 -11 -24 1 -20 -4 -29 -20 -33 -15 -4 -18 -9 -10 -14 8 -5 8 -12 -3 -26 -8
-11 -14 -16 -15 -10 0 5 -4 -1 -10 -14 -5 -13 -13 -21 -18 -18 -4 3 -8 -7 -7
-22 0 -16 -4 -26 -12 -25 -7 2 -13 -2 -13 -7 -3 -20 -4 -25 -12 -37 -6 -9 -3
-11 10 -8 10 3 4 -2 -14 -11 -30 -16 -59 -65 -46 -78 4 -3 -2 -6 -11 -6 -13 0
-17 -6 -13 -20 3 -11 1 -20 -5 -20 -5 0 -6 -4 -3 -10 3 -6 -4 -10 -16 -10 -12
0 -19 -3 -16 -7 10 -9 -14 -34 -26 -26 -6 4 -7 1 -1 -8 14 -23 13 -39 -2 -39
-13 0 -18 -14 -17 -47 1 -7 -4 -13 -9 -13 -18 0 -53 -45 -50 -64 2 -11 -4 -19
-17 -23 -15 -4 -18 -9 -12 -20 5 -11 -2 -24 -24 -47 -18 -17 -31 -39 -29 -49
1 -11 0 -16 -3 -14 -11 11 -31 -19 -27 -40 3 -13 0 -23 -6 -23 -5 0 -21 -10
-35 -22 -19 -16 -22 -24 -14 -35 9 -9 8 -13 0 -13 -7 0 -9 -5 -5 -12 5 -8 2
-9 -9 -5 -18 7 -33 -8 -17 -18 6 -4 5 -13 -2 -25 -7 -10 -16 -16 -22 -13 -5 4
-7 -1 -3 -11 4 -9 3 -14 -2 -11 -10 6 -24 -11 -27 -32 -1 -7 2 -13 7 -13 6 0
7 -5 4 -10 -4 -6 -11 -7 -17 -4 -13 8 -29 -17 -19 -31 6 -9 -27 -50 -47 -57
-4 -2 -6 -6 -4 -10 1 -5 -2 -8 -7 -8 -5 0 -7 -9 -4 -20 4 -14 1 -20 -8 -18 -8
2 -13 -6 -14 -20 0 -12 -7 -27 -15 -32 -18 -11 -20 -30 -6 -48 8 -11 13 -9 28
10 10 14 18 17 18 9 0 -10 3 -11 14 -2 10 8 16 9 21 1 4 -7 12 -7 26 0 14 8
19 7 19 -1 0 -9 3 -9 14 0 10 8 16 9 21 1 4 -7 12 -7 26 0 14 8 19 7 19 -2 0
-8 3 -9 11 -1 6 6 23 8 45 3 19 -5 32 -4 28 1 -3 5 0 9 5 9 6 0 11 -3 11 -8 0
-9 64 -7 79 2 5 4 12 2 16 -4 4 -7 12 -7 26 0 14 8 19 7 19 -1 0 -9 3 -9 14 0
10 8 16 9 21 1 4 -7 12 -7 26 0 14 8 19 7 19 -2 0 -8 3 -9 11 -1 6 6 23 8 45
3 19 -5 32 -4 28 1 -3 5 0 9 5 9 6 0 11 -3 11 -8 0 -9 64 -7 79 2 5 4 12 2 16
-4 4 -7 12 -7 26 0 14 8 19 7 19 -1 0 -9 3 -9 14 0 10 8 16 9 21 1 4 -7 12 -7
26 0 14 8 19 7 19 -2 0 -8 3 -9 11 -1 6 6 23 8 45 3 19 -5 32 -4 28 1 -3 5 0
9 5 9 6 0 11 -3 11 -8 0 -9 64 -7 79 2 5 4 12 2 16 -4 4 -7 12 -7 26 0 10 6
19 7 19 2 0 -5 7 -9 15 -9 8 0 15 3 15 6 0 3 11 6 25 6 14 0 25 -4 25 -10 0
-5 5 -3 10 5 6 9 10 10 10 3 0 -8 9 -9 28 -3 16 4 36 4 45 -2 10 -5 17 -5 17
-1 0 4 11 8 25 8 14 0 25 -4 25 -10 0 -5 5 -3 10 5 5 8 10 11 10 5 0 -11 50
-12 68 -1 6 3 14 2 17 -4 5 -8 11 -8 20 0 10 8 15 8 20 0 5 -8 10 -8 20 0 10
8 15 8 20 0 5 -8 11 -8 21 1 10 8 14 8 14 0 0 -7 8 -8 25 -1 15 6 26 6 30 0 4
-7 13 -6 26 0 14 8 19 7 19 -2 0 -8 3 -9 11 -1 6 6 23 8 45 3 19 -5 32 -4 28
1 -3 5 0 9 5 9 6 0 11 -3 11 -8 0 -9 64 -7 79 2 5 4 12 2 16 -4 4 -7 12 -7 26
0 14 8 19 7 19 -2 0 -10 2 -10 9 1 6 9 10 10 16 2 5 -9 10 -9 20 -1 10 8 15 8
20 0 5 -8 10 -8 20 0 10 8 15 8 20 0 5 -8 11 -8 21 1 8 6 14 8 14 3 0 -5 11
-9 25 -9 14 0 25 2 25 5 0 3 11 5 25 5 14 0 25 -4 25 -10 0 -5 5 -3 10 5 6 9
10 10 10 3 0 -8 9 -9 28 -3 16 4 36 4 45 -2 10 -5 17 -5 17 -1 0 4 11 8 25 8
14 0 25 -4 25 -10 0 -5 5 -3 10 5 5 8 10 11 10 5 0 -11 50 -12 68 -1 6 3 14 2
17 -4 5 -8 11 -8 20 0 8 7 15 7 19 1 4 -6 18 -6 36 -1 19 5 28 5 25 -1 -8 -11
-7 -11 32 0 20 6 35 6 38 0 4 -5 14 -5 26 1 14 8 19 7 19 -1 0 -8 5 -7 17 2
14 12 15 12 9 1 -7 -11 -4 -12 11 -3 14 7 24 7 33 -2 10 -9 11 -9 6 1 -4 6 -5
12 -2 12 3 0 10 -10 17 -22 10 -18 9 -20 -5 -15 -9 4 -16 2 -16 -4 0 -6 -4 -8
-9 -5 -11 7 -9 -13 2 -31 5 -8 3 -13 -7 -13 -9 0 -16 -7 -16 -16 0 -8 -4 -13
-9 -10 -4 3 -7 -5 -6 -19 2 -18 -1 -23 -15 -20 -16 3 -18 0 -9 -21 11 -30 11
-34 2 -33 -23 4 -30 -3 -28 -26 2 -17 -2 -25 -12 -25 -10 0 -14 -6 -10 -19 5
-19 -24 -57 -35 -46 -2 3 -2 -10 0 -28 3 -17 1 -29 -3 -25 -10 9 -58 -40 -50
-51 3 -5 -2 -17 -11 -26 -9 -8 -17 -27 -18 -40 0 -16 -7 -25 -17 -25 -12 0
-16 -8 -14 -30 1 -16 -1 -28 -5 -25 -4 3 -13 -2 -19 -9 -9 -10 -9 -16 -1 -21
8 -5 5 -11 -7 -20 -10 -7 -20 -12 -24 -10 -3 2 -6 -2 -6 -10 0 -8 4 -15 9 -15
17 0 7 -19 -13 -25 -14 -5 -19 -13 -16 -26 5 -20 -15 -43 -28 -31 -5 4 -6 3
-3 -3 7 -12 -17 -37 -26 -28 -3 4 -6 0 -6 -8 0 -8 5 -20 12 -27 9 -9 9 -12 -1
-12 -18 0 -36 -22 -37 -45 0 -11 -5 -19 -12 -17 -12 2 -16 -9 -13 -41 2 -10
-5 -17 -15 -17 -11 0 -15 -6 -11 -20 3 -13 -2 -25 -15 -34 -12 -9 -18 -21 -15
-30 4 -10 -1 -20 -13 -26 -12 -6 -17 -18 -15 -31 3 -14 -2 -23 -15 -26 -12 -3
-17 -10 -13 -21 5 -11 2 -14 -10 -9 -13 5 -17 0 -18 -21 -1 -15 -1 -30 0 -34
0 -5 -5 -7 -12 -5 -7 1 -12 -9 -12 -26 1 -19 -4 -27 -16 -27 -11 0 -16 -7 -14
-17 3 -20 -13 -45 -25 -38 -4 2 -7 -6 -7 -18 -1 -41 -3 -46 -17 -41 -9 4 -13
-2 -11 -19 3 -26 -7 -49 -21 -49 -5 1 -8 -6 -6 -13 3 -15 -31 -55 -47 -55 -5
0 -8 -11 -7 -24 2 -16 -3 -26 -15 -29 -12 -3 -17 -13 -15 -31 3 -23 -4 -30
-25 -28 -3 1 -3 -12 -1 -29 3 -22 0 -29 -12 -29 -15 0 -21 -17 -17 -48 1 -7
-4 -11 -10 -10 -7 2 -16 -10 -19 -27 -3 -17 -12 -29 -19 -27 -7 1 -10 -2 -6
-8 3 -5 1 -10 -6 -10 -10 0 -10 -3 -2 -11 9 -9 4 -18 -18 -38 -16 -15 -31 -38
-34 -51 -2 -13 -10 -28 -16 -34 -9 -8 -10 -7 -4 3 5 9 4 12 -3 7 -6 -3 -9 -18
-6 -31 3 -18 0 -25 -11 -25 -13 0 -22 -33 -16 -64 1 -5 -4 -4 -12 3 -12 9 -16
8 -20 -3 -3 -8 -1 -16 4 -18 6 -2 2 -13 -9 -26 -10 -12 -23 -18 -27 -14 -4 4
-3 -2 3 -13 8 -15 7 -22 -5 -31 -9 -6 -17 -22 -18 -35 -1 -13 -8 -23 -14 -22
-6 2 -11 -3 -11 -10 0 -7 -9 -18 -21 -25 -14 -9 -18 -17 -11 -25 7 -8 5 -17
-6 -27 -9 -8 -19 -14 -22 -12 -10 4 -6 -23 5 -31 6 -4 1 -9 -12 -13 -12 -3
-24 -12 -27 -20 -7 -18 -26 -18 -26 0 0 8 -7 17 -16 20 -8 3 -13 10 -10 15 3
5 -3 11 -13 14 -14 3 -18 11 -14 26 4 15 1 21 -11 21 -10 0 -14 5 -11 10 3 6
2 10 -4 10 -6 0 -8 6 -5 13 5 15 -27 57 -45 57 -7 0 -10 10 -7 25 3 14 1 23
-5 20 -5 -4 -9 1 -9 10 0 11 -5 15 -16 11 -8 -3 -12 -2 -9 4 3 5 8 19 10 29 3
14 -1 18 -11 14 -8 -3 -14 1 -14 11 0 10 -9 16 -22 16 -17 0 -19 3 -9 9 9 6
10 11 3 15 -6 4 -9 13 -5 21 3 10 -1 15 -14 15 -16 0 -19 5 -15 31 3 21 1 30
-6 25 -6 -4 -16 3 -22 14 -6 11 -15 18 -20 15 -4 -3 -7 7 -5 21 2 19 -4 28
-22 37 -15 7 -20 13 -12 18 14 8 -19 58 -38 59 -8 0 -13 13 -13 30 0 19 -5 30
-14 30 -8 0 -16 7 -20 15 -3 8 -2 15 3 15 4 0 8 6 8 14 0 8 -3 15 -6 14 -20
-2 -31 4 -31 17 0 8 -6 14 -12 12 -8 -1 -13 9 -12 30 0 24 -4 30 -17 28 -13
-3 -17 2 -14 16 5 23 -41 72 -58 62 -9 -5 -9 -3 0 8 7 9 8 20 3 29 -5 8 -6 18
-4 22 3 4 -3 5 -12 1 -13 -5 -16 -2 -12 9 4 9 1 21 -5 28 -9 10 -9 11 2 5 9
-5 12 -4 7 3 -4 7 -14 12 -22 12 -8 0 -14 7 -14 15 0 9 -7 18 -15 22 -9 3 -15
15 -13 27 2 13 -2 20 -9 19 -7 -2 -14 3 -14 10 -4 38 -18 69 -30 61 -5 -3 -9
0 -9 6 0 6 -4 9 -8 6 -4 -2 -9 7 -10 21 -3 33 -11 45 -24 37 -7 -5 -9 -2 -6 7
6 17 -5 51 -16 49 -13 -2 -45 51 -40 65 3 7 -4 15 -14 17 -15 4 -19 12 -15 32
4 19 1 26 -11 26 -9 0 -16 6 -16 14 0 7 -9 16 -21 19 -17 5 -19 9 -10 25 9 16
7 21 -10 25 -15 4 -19 11 -15 31 3 14 0 26 -5 26 -20 0 -58 47 -47 58 7 7 4
14 -11 21 -12 7 -21 18 -21 26 0 13 -16 37 -46 69 -12 12 -14 19 -14 42 0 8
-4 12 -10 9 -10 -6 -14 6 -11 37 1 10 -4 18 -13 18 -8 0 -18 9 -21 20 -4 11
-11 18 -16 15 -9 -6 -13 7 -9 39 1 11 -3 15 -9 12 -10 -7 -13 -3 -15 27 -1 17
-19 36 -29 30 -4 -2 -6 1 -5 8 2 7 -8 18 -22 26 -14 7 -19 13 -12 13 15 0 12
20 -8 40 -8 8 -17 24 -18 35 -2 11 -15 30 -29 43 -14 13 -22 29 -19 37 3 8 2
15 -2 15 -5 0 -17 7 -28 16 -10 8 -13 12 -5 8 11 -5 13 -3 8 10 -4 10 -7 22
-7 27 0 5 -6 8 -12 7 -7 -2 -12 3 -10 10 1 6 -3 11 -10 10 -6 -2 -14 6 -17 17
-7 22 -30 32 -32 13 -1 -7 -2 -22 -3 -33 0 -11 -6 -19 -13 -18 -6 2 -15 -6
-18 -17 -4 -11 -11 -18 -16 -15 -5 4 -9 -1 -9 -9 0 -9 -7 -16 -16 -16 -8 0
-12 -4 -9 -10 3 -5 0 -10 -7 -10 -10 0 -10 -2 -1 -8 12 -8 3 -32 -13 -35 -5
-1 -8 -12 -7 -23 1 -14 -5 -24 -18 -27 -13 -3 -17 -11 -13 -21 7 -20 -14 -48
-29 -39 -6 4 -8 0 -4 -10 6 -15 -3 -21 -25 -18 -4 0 -5 -10 -2 -24 3 -16 -3
-28 -18 -39 -12 -9 -17 -16 -11 -16 7 0 10 -7 7 -15 -4 -8 -13 -15 -21 -15 -8
0 -12 -3 -10 -7 6 -10 -19 -34 -27 -26 -10 10 -7 -7 5 -30 7 -12 8 -19 4 -15
-4 4 -14 0 -22 -10 -9 -10 -12 -11 -7 -2 4 9 3 12 -2 7 -5 -5 -9 -14 -10 -20
0 -7 -2 -20 -2 -30 -1 -9 -7 -16 -14 -15 -7 2 -12 -3 -13 -10 0 -8 -8 -20 -18
-27 -12 -9 -15 -15 -7 -20 8 -5 4 -12 -10 -22 -14 -10 -20 -22 -17 -34 3 -11
1 -19 -4 -19 -16 0 -57 -53 -52 -66 4 -12 -7 -18 -28 -16 -3 1 -4 -10 -1 -25
4 -19 -2 -31 -23 -49 -16 -13 -33 -24 -39 -24 -6 0 -5 -4 3 -9 11 -7 9 -13 -7
-29 -13 -13 -19 -28 -15 -41 3 -13 1 -21 -7 -21 -15 0 -41 -26 -33 -34 4 -3
-1 -6 -9 -6 -11 0 -14 -7 -10 -25 3 -18 0 -25 -9 -23 -7 2 -13 -2 -14 -9 0 -6
-3 -14 -7 -18 -4 -4 -4 -14 -1 -23 4 -10 2 -13 -5 -8 -6 3 -16 -3 -22 -14 -6
-11 -15 -18 -19 -15 -5 3 -11 -2 -15 -10 -3 -8 -1 -17 4 -20 15 -9 0 -34 -17
-28 -13 5 -15 2 -10 -16 5 -22 -25 -66 -37 -53 -3 3 -6 0 -6 -7 0 -7 -5 -9
-11 -5 -8 5 -8 1 0 -14 9 -16 8 -24 -5 -36 -9 -9 -19 -14 -23 -12 -4 3 -5 -9
-3 -27 3 -18 1 -29 -3 -25 -10 9 -56 -43 -52 -57 2 -5 -2 -14 -10 -20 -7 -5
-15 -21 -18 -34 -3 -14 -12 -29 -20 -34 -8 -4 -13 -12 -10 -18 4 -5 -1 -9 -9
-9 -9 0 -17 -7 -17 -15 -3 -34 -5 -40 -16 -38 -6 1 -10 -8 -8 -22 2 -22 -5
-30 -27 -26 -4 0 -5 -5 -2 -13 3 -8 0 -17 -7 -22 -8 -5 -10 -3 -4 7 6 11 5 11
-5 2 -7 -6 -14 -22 -15 -35 -4 -37 -4 -38 -17 -35 -7 1 -13 -10 -13 -27 0 -15
-7 -33 -15 -40 -8 -6 -15 -18 -15 -26 0 -8 -6 -14 -13 -12 -8 1 -11 -2 -7 -8
3 -5 -6 -15 -21 -20 -20 -8 -24 -14 -16 -22 13 -13 -3 -52 -17 -43 -5 2 -8 -7
-8 -21 0 -18 -11 -35 -32 -51 -24 -19 -29 -28 -21 -38 8 -9 6 -14 -6 -19 -9
-3 -20 -3 -26 0 -7 5 -7 1 0 -12 8 -15 7 -24 -6 -38 -13 -15 -14 -18 -2 -12 8
4 6 1 -4 -8 -10 -8 -23 -17 -29 -19 -6 -2 -11 -12 -11 -23 -2 -25 -15 -46 -25
-39 -5 2 -9 -7 -9 -22 0 -14 -8 -33 -18 -42 -11 -9 -28 -26 -38 -38 -18 -21
-18 -23 0 -45 19 -23 75 -31 101 -15 6 4 14 1 16 -5 4 -10 8 -9 16 2 10 13 11
13 11 0 0 -12 2 -12 9 -1 6 9 11 10 15 2 4 -6 12 -11 17 -11 6 0 7 6 3 13 -5
8 -2 8 9 -2 13 -10 17 -10 17 -1 0 10 3 10 14 1 11 -9 15 -9 19 1 3 7 6 9 6 3
1 -11 172 -12 190 -1 6 4 11 2 11 -3 0 -13 22 -10 32 4 5 7 8 7 8 0 0 -11 71
-12 88 -1 6 3 13 0 15 -6 4 -10 8 -9 16 2 10 13 11 13 11 0 0 -12 2 -12 9 -1
6 9 11 10 15 2 4 -6 12 -11 17 -11 6 0 7 6 3 13 -5 8 -2 8 9 -2 13 -10 17 -10
17 -1 0 10 3 10 14 1 11 -9 15 -9 19 1 3 7 6 9 6 3 1 -11 172 -12 190 -1 6 4
11 2 11 -3 0 -13 22 -10 32 4 5 7 8 7 8 0 0 -11 71 -12 88 -1 6 3 13 0 15 -6
4 -10 8 -9 16 2 10 13 11 13 11 0 0 -12 2 -12 9 -1 6 9 11 10 15 2 4 -6 12
-11 17 -11 6 0 7 6 3 13 -5 8 -2 8 9 -2 13 -10 17 -10 17 -1 0 10 3 10 14 1
11 -9 15 -9 19 1 3 7 6 9 6 3 1 -11 172 -12 190 -1 6 4 11 2 11 -3 0 -13 22
-10 32 4 5 7 8 7 8 0 0 -11 71 -12 88 -1 6 3 13 0 15 -6 4 -10 8 -9 16 2 10
13 11 13 11 0 0 -12 2 -12 9 -1 6 9 11 10 15 2 4 -6 12 -11 17 -11 6 0 7 6 3
13 -5 8 -2 8 9 -2 13 -10 17 -10 17 -1 0 10 3 10 14 1 11 -9 15 -9 19 1 3 7 6
9 6 3 1 -11 172 -12 190 -1 6 4 11 2 11 -3 0 -13 22 -10 32 4 5 7 8 7 8 0 0
-11 71 -12 88 -1 6 3 13 0 15 -6 4 -10 8 -9 16 2 10 13 11 13 11 0 0 -12 2
-12 9 -1 6 9 11 10 15 2 4 -6 12 -11 17 -11 6 0 7 6 3 12 -5 9 -2 9 9 -1 13
-10 17 -10 17 -1 0 10 3 10 14 1 11 -9 15 -9 19 1 3 7 6 9 6 3 1 -11 172 -12
190 -1 6 4 11 2 11 -3 0 -13 22 -10 32 4 5 7 8 7 8 0 0 -11 71 -12 88 -1 6 3
13 0 15 -6 4 -10 8 -9 16 2 10 13 11 13 11 0 0 -12 2 -12 9 -1 6 9 11 10 15 2
4 -6 12 -11 17 -11 6 0 7 6 3 12 -5 9 -2 9 9 -1 13 -10 17 -10 17 -1 0 10 3
10 14 1 11 -9 15 -9 19 1 3 7 6 9 6 3 1 -11 172 -12 190 -1 6 4 11 2 11 -3 0
-13 22 -10 32 4 5 7 8 7 8 0 0 -11 71 -12 88 -1 6 3 13 0 15 -6 4 -10 8 -9 16
2 10 13 11 13 11 0 0 -12 2 -12 9 -1 6 9 11 10 15 2 4 -6 12 -11 17 -11 6 0 7
6 3 13 -5 8 -2 8 9 -2 13 -10 17 -10 17 -1 0 10 3 10 14 1 11 -9 15 -9 19 1 3
7 6 9 6 3 1 -11 172 -12 190 -1 6 4 11 2 11 -3 0 -13 22 -10 32 4 5 7 8 7 8 0
0 -11 71 -12 88 -1 6 3 13 0 15 -6 4 -10 8 -9 16 2 10 13 11 13 11 0 0 -12 2
-12 9 -1 6 9 11 10 15 2 4 -6 12 -11 17 -11 6 0 7 6 3 13 -5 8 -2 8 9 -2 13
-10 17 -10 17 -1 0 10 3 10 14 1 11 -9 15 -9 19 1 3 7 6 9 6 3 1 -11 172 -12
190 -1 6 4 11 2 11 -3 0 -13 22 -10 32 4 5 7 8 7 8 0 0 -11 71 -12 88 -1 6 3
13 0 15 -6 4 -10 8 -9 16 2 10 13 11 13 11 0 0 -12 2 -12 9 -1 6 9 11 10 15 2
4 -6 12 -11 17 -11 6 0 7 6 3 13 -5 8 -2 8 9 -2 13 -10 17 -10 17 -1 0 10 3
10 14 1 11 -9 15 -9 19 1 3 7 6 9 6 3 1 -11 172 -12 190 -1 6 4 11 2 11 -3 0
-13 22 -10 32 4 5 7 8 7 8 0 0 -11 71 -12 88 -1 6 3 13 0 15 -6 4 -10 8 -9 16
2 10 13 11 13 11 0 0 -12 2 -12 9 -1 6 9 11 10 15 2 4 -6 12 -11 17 -11 6 0 7
6 3 13 -5 8 -2 8 9 -2 13 -10 17 -10 17 -1 0 10 3 10 14 1 11 -9 15 -9 19 1 3
7 6 9 6 3 1 -11 172 -12 190 -1 6 4 11 2 11 -3 0 -13 22 -10 32 4 5 7 8 7 8 0
0 -11 71 -12 88 -1 6 3 13 0 15 -6 4 -10 8 -9 16 2 10 13 11 13 11 0 0 -12 2
-12 9 -1 6 9 11 10 15 2 4 -6 12 -11 17 -11 6 0 7 6 3 13 -5 8 -2 8 9 -2 13
-10 17 -10 17 -1 0 10 3 10 15 0 12 -10 15 -10 15 1 0 9 3 10 8 4 4 -5 21 -10
37 -10 17 0 33 5 37 10 5 7 8 7 8 0 0 -11 71 -12 88 -1 6 3 13 0 15 -6 4 -10
8 -9 16 2 10 13 11 13 11 0 0 -12 2 -12 9 -1 6 9 11 10 15 2 4 -6 12 -11 17
-11 6 0 7 6 3 13 -5 8 -2 8 9 -2 13 -10 17 -10 17 -1 0 10 3 10 14 1 11 -9 15
-9 19 1 3 7 6 9 6 3 1 -11 172 -12 190 -1 6 4 11 3 11 -1 0 -5 18 -7 40 -5 22
2 40 8 40 14 0 5 -4 6 -10 3 -5 -3 -7 0 -4 9 3 9 -5 21 -21 32 -17 11 -23 20
-16 27 6 6 -3 21 -25 43 -20 21 -31 40 -28 49 4 10 0 15 -11 15 -9 0 -13 5
-10 10 3 6 1 10 -5 10 -6 0 -9 4 -6 9 8 13 -4 42 -15 35 -5 -3 -9 8 -9 23 0
18 -8 33 -20 41 -12 7 -18 17 -15 22 3 6 -1 7 -10 4 -14 -6 -16 -1 -12 23 4
24 1 30 -12 29 -10 -1 -15 5 -13 17 4 22 -16 49 -29 41 -5 -3 -8 0 -7 8 2 7
-3 12 -11 10 -10 -2 -12 6 -9 31 3 26 0 34 -12 33 -9 -1 -14 7 -13 18 1 21
-21 49 -31 39 -3 -4 -6 1 -6 9 0 9 -6 18 -14 21 -8 3 -12 16 -11 31 2 14 0 25
-3 25 -22 -3 -30 3 -27 20 4 21 -28 65 -39 54 -6 -6 -8 0 -10 30 -1 6 -9 20
-19 29 -11 9 -16 21 -13 27 4 6 -9 27 -29 47 -30 31 -34 39 -23 52 10 12 10
14 1 8 -7 -4 -13 -2 -13 3 0 6 -6 11 -14 11 -9 0 -12 7 -9 19 5 19 -27 61 -47
61 -6 0 -8 11 -6 25 3 14 1 23 -4 20 -10 -6 -23 23 -23 51 0 15 -5 20 -17 17
-13 -3 -16 1 -15 19 3 25 -30 68 -52 68 -11 0 -11 5 -3 20 8 14 8 20 0 20 -6
0 -8 5 -4 12 5 7 2 9 -9 5 -12 -5 -17 1 -19 26 -2 18 -7 31 -13 30 -5 -1 -13
7 -18 19 -5 14 -12 18 -25 13 -13 -5 -14 -3 -6 5 14 14 7 47 -11 54 -8 3 -11
13 -8 24 3 14 -1 22 -16 27 -12 3 -19 11 -16 16 4 5 -1 9 -9 9 -11 0 -16 10
-16 31 0 16 -4 28 -8 25 -4 -2 -14 -1 -22 5 -8 5 -10 9 -4 9 6 0 10 10 9 23
-1 12 -6 22 -12 22 -12 0 -47 35 -49 49 0 6 -2 17 -2 24 -1 6 -9 12 -17 12
-13 0 -14 4 -4 21 8 15 8 19 0 15 -6 -4 -11 -2 -11 4 0 15 -25 40 -40 40 -6 0
-9 4 -5 9 3 5 1 12 -4 16 -6 3 -8 12 -5 20 3 7 -3 18 -14 24 -14 8 -19 17 -15
32 4 15 3 20 -5 15 -7 -4 -12 -1 -12 7 0 8 -9 17 -21 20 -18 5 -19 8 -8 29 6
13 8 20 5 16 -13 -11 -46 24 -35 38 7 8 3 13 -13 17 -12 4 -19 9 -15 13 9 10
-13 35 -24 28 -5 -3 -9 -2 -8 3 5 26 -3 53 -15 53 -9 0 -13 10 -11 30 1 17 0
29 -3 26 -9 -9 -34 33 -27 45 4 6 -2 13 -14 16 -11 3 -18 9 -15 14 3 5 -2 9
-11 9 -11 0 -15 5 -12 15 4 8 2 17 -4 20 -5 4 -7 11 -4 16 4 5 -1 9 -9 9 -11
0 -16 10 -16 31 0 17 -4 28 -10 24 -5 -3 -10 1 -10 10 0 9 -4 14 -9 10 -13 -7
-31 25 -31 55 0 6 -7 10 -16 10 -10 0 -13 6 -10 18 7 20 -27 67 -41 59 -4 -3
-9 6 -10 20 0 14 -6 29 -12 32 -9 6 -17 31 -20 64 -1 4 -6 7 -12 7 -19 0 -41
30 -41 55 0 14 -4 22 -9 19 -12 -7 -28 37 -21 55 4 10 1 13 -12 8 -10 -4 -15
-3 -11 3 3 5 -7 16 -22 24 -15 8 -23 15 -17 16 19 0 11 34 -10 43 -13 5 -17
14 -14 32 3 13 1 22 -4 19 -4 -3 -11 2 -14 10 -3 8 -14 18 -25 21 -15 5 -17
10 -9 26 9 16 7 21 -13 28 -19 7 -23 15 -20 34 4 19 0 26 -17 30 -18 5 -20 9
-11 25 9 16 7 21 -10 25 -12 3 -18 10 -15 15 3 5 -3 12 -13 15 -19 5 -22 21
-8 43 4 7 0 11 -10 10 -11 0 -21 11 -27 29 -13 35 -51 77 -61 67 -4 -4 -2 3 4
16 11 21 10 24 -8 29 -15 4 -21 13 -21 35 0 17 -4 27 -10 23 -5 -3 -10 -2 -10
2 0 5 -7 18 -16 29 -8 10 -12 13 -8 5 5 -9 3 -12 -5 -7 -6 4 -9 11 -6 16 8 13
-6 40 -20 40 -15 0 -15 31 0 42 6 5 5 8 -3 8 -18 0 -74 63 -62 70 5 3 1 13 -9
22 -11 9 -23 13 -27 10 -3 -4 -2 2 3 13 7 16 4 25 -13 41 -13 12 -25 19 -28
16 -3 -3 -6 9 -6 26 0 28 -8 37 -32 33 -3 0 -4 13 -1 29 3 23 0 30 -11 30 -9
0 -16 7 -16 16 0 8 -4 12 -10 9 -5 -3 -10 -1 -10 5 0 6 -5 8 -12 4 -7 -5 -8
-3 -2 7 10 16 15 44 7 35 -11 -10 -35 25 -30 44 4 14 0 20 -12 20 -12 0 -17 7
-16 22 2 23 -34 69 -47 61 -7 -4 -11 30 -5 42 1 2 -8 12 -21 21 -18 12 -21 19
-11 30 8 9 8 14 1 14 -22 0 -63 51 -57 71 5 14 2 19 -13 19 -16 0 -19 6 -17
30 2 19 -2 30 -10 30 -7 0 -16 7 -19 16 -3 8 -10 13 -15 10 -5 -3 -8 7 -7 23
1 17 -2 28 -6 25 -4 -3 -8 0 -8 6 0 6 -5 8 -12 4 -8 -5 -9 0 -5 15 4 15 -2 29
-19 46 -14 14 -29 25 -33 25 -5 0 -7 11 -6 25 2 16 -2 25 -11 25 -12 0 -19 26
-15 53 0 4 -3 7 -9 7 -17 0 -50 44 -50 67 0 14 -4 21 -10 18 -9 -6 -12 0 -14
35 -1 20 -36 26 -36 6z"/>
</g>
</svg>
